<?xml version="1.0" encoding="UTF-8" standalone="no"?>
<svg
   xmlns:dc="http://purl.org/dc/elements/1.1/"
   xmlns:cc="http://creativecommons.org/ns#"
   xmlns:rdf="http://www.w3.org/1999/02/22-rdf-syntax-ns#"
   xmlns:svg="http://www.w3.org/2000/svg"
   xmlns="http://www.w3.org/2000/svg"
   xmlns:sodipodi="http://sodipodi.sourceforge.net/DTD/sodipodi-0.dtd"
   xmlns:inkscape="http://www.inkscape.org/namespaces/inkscape"
   width="160"
   height="41"
   viewBox="0 0 160 41"
   fill="none"
   version="1.1"
   id="svg8"
   sodipodi:docname="white-logo.svg"
   inkscape:version="0.92.5 (2060ec1f9f, 2020-04-08)"
   inkscape:export-filename="/home/yudha/Desktop/trafalgar/assets/footer/white-logo.png"
   inkscape:export-xdpi="300"
   inkscape:export-ydpi="300">
  <metadata
     id="metadata14">
    <rdf:RDF>
      <cc:Work
         rdf:about="">
        <dc:format>image/svg+xml</dc:format>
        <dc:type
           rdf:resource="http://purl.org/dc/dcmitype/StillImage" />
        <dc:title />
      </cc:Work>
    </rdf:RDF>
  </metadata>
  <defs
     id="defs12" />
  <sodipodi:namedview
     pagecolor="#ffffff"
     bordercolor="#666666"
     borderopacity="1"
     objecttolerance="10"
     gridtolerance="10"
     guidetolerance="10"
     inkscape:pageopacity="0"
     inkscape:pageshadow="2"
     inkscape:window-width="1920"
     inkscape:window-height="1043"
     id="namedview10"
     showgrid="false"
     inkscape:zoom="2.16875"
     inkscape:cx="72.929892"
     inkscape:cy="18.252843"
     inkscape:window-x="1366"
     inkscape:window-y="0"
     inkscape:window-maximized="1"
     inkscape:current-layer="svg8" />
  <g
     id="g829"
     transform="translate(0.5155)">
    <path
       style="fill:#ffffff"
       id="path2"
       d="m 58.856,15.456 h -5.568 v -2.544 h 14.28 v 2.544 H 61.976 V 30 h -3.12 z m 15.2649,2.136 c 0.464,0 0.864,0.064 1.2,0.192 l -0.024,2.736 c -0.512,-0.208 -1.04,-0.312 -1.584,-0.312 -1.024,0 -1.808,0.296 -2.352,0.888 -0.528,0.592 -0.792,1.376 -0.792,2.352 V 30 h -2.976 v -8.688 c 0,-1.28 -0.064,-2.424 -0.192,-3.432 h 2.808 l 0.24,2.136 c 0.304,-0.784 0.784,-1.384 1.44,-1.8 0.656,-0.416 1.4,-0.624 2.232,-0.624 z M 88.349,17.88 V 30 h -2.952 v -1.944 c -0.368,0.672 -0.896,1.2 -1.584,1.584 -0.688,0.368 -1.472,0.552 -2.352,0.552 -1.056,0 -1.992,-0.256 -2.808,-0.768 -0.816,-0.512 -1.448,-1.24 -1.896,-2.184 -0.448,-0.944 -0.672,-2.04 -0.672,-3.288 0,-1.248 0.224,-2.352 0.672,-3.312 0.464,-0.976 1.104,-1.728 1.92,-2.256 0.816,-0.544 1.744,-0.816 2.784,-0.816 0.88,0 1.664,0.192 2.352,0.576 0.688,0.368 1.216,0.888 1.584,1.56 V 17.88 Z m -6.072,9.96 c 0.992,0 1.76,-0.344 2.304,-1.032 0.544,-0.688 0.816,-1.656 0.816,-2.904 0,-1.28 -0.272,-2.264 -0.816,-2.952 -0.544,-0.688 -1.32,-1.032 -2.328,-1.032 -0.992,0 -1.768,0.36 -2.328,1.08 -0.544,0.704 -0.816,1.688 -0.816,2.952 0,1.248 0.272,2.208 0.816,2.88 0.56,0.672 1.344,1.008 2.352,1.008 z M 97.3524,14.712 c -1.296,0 -1.944,0.712 -1.944,2.136 v 1.032 h 2.712 v 2.256 h -2.712 V 30 h -3 v -9.864 h -2.304 V 17.88 h 2.304 v -1.176 c 0,-1.44 0.36,-2.544 1.08,-3.312 0.736,-0.784 1.784,-1.176 3.144,-1.176 0.752,0 1.384,0.096 1.896,0.288 v 2.376 c -0.448,-0.112 -0.84,-0.168 -1.176,-0.168 z M 111.904,17.88 V 30 h -2.952 v -1.944 c -0.368,0.672 -0.896,1.2 -1.584,1.584 -0.688,0.368 -1.472,0.552 -2.352,0.552 -1.056,0 -1.992,-0.256 -2.808,-0.768 -0.816,-0.512 -1.448,-1.24 -1.896,-2.184 -0.4483,-0.944 -0.6723,-2.04 -0.6723,-3.288 0,-1.248 0.224,-2.352 0.6723,-3.312 0.464,-0.976 1.104,-1.728 1.92,-2.256 0.816,-0.544 1.744,-0.816 2.784,-0.816 0.88,0 1.664,0.192 2.352,0.576 0.688,0.368 1.216,0.888 1.584,1.56 V 17.88 Z m -6.072,9.96 c 0.992,0 1.76,-0.344 2.304,-1.032 0.544,-0.688 0.816,-1.656 0.816,-2.904 0,-1.28 -0.272,-2.264 -0.816,-2.952 -0.544,-0.688 -1.32,-1.032 -2.328,-1.032 -0.992,0 -1.768,0.36 -2.328,1.08 -0.544,0.704 -0.816,1.688 -0.816,2.952 0,1.248 0.272,2.208 0.816,2.88 0.56,0.672 1.344,1.008 2.352,1.008 z m 9.339,-15.504 h 2.976 V 30 h -2.976 z m 17.97,5.544 v 11.736 c 0,1.888 -0.52,3.32 -1.56,4.296 -1.04,0.976 -2.568,1.464 -4.584,1.464 -1.872,0 -3.52,-0.392 -4.944,-1.176 l 0.48,-2.28 c 1.472,0.768 2.936,1.152 4.392,1.152 2.16,0 3.24,-1.072 3.24,-3.216 v -2.4 c -0.368,0.656 -0.904,1.192 -1.608,1.608 -0.704,0.4 -1.496,0.6 -2.376,0.6 -1.056,0 -2,-0.248 -2.832,-0.744 -0.816,-0.512 -1.456,-1.224 -1.92,-2.136 -0.448,-0.928 -0.672,-1.984 -0.672,-3.168 0,-1.184 0.224,-2.232 0.672,-3.144 0.464,-0.928 1.104,-1.64 1.92,-2.136 0.832,-0.512 1.776,-0.768 2.832,-0.768 0.896,0 1.688,0.192 2.376,0.576 0.704,0.368 1.24,0.888 1.608,1.56 V 17.88 Z m -6.168,9.432 c 0.992,0 1.768,-0.328 2.328,-0.984 0.576,-0.656 0.864,-1.56 0.864,-2.712 0,-1.152 -0.28,-2.056 -0.84,-2.712 -0.56,-0.656 -1.344,-0.984 -2.352,-0.984 -0.992,0 -1.776,0.328 -2.352,0.984 -0.56,0.656 -0.84,1.56 -0.84,2.712 0,1.152 0.28,2.056 0.84,2.712 0.576,0.656 1.36,0.984 2.352,0.984 z M 147.974,17.88 V 30 h -2.952 v -1.944 c -0.368,0.672 -0.896,1.2 -1.584,1.584 -0.688,0.368 -1.472,0.552 -2.352,0.552 -1.056,0 -1.992,-0.256 -2.808,-0.768 -0.816,-0.512 -1.448,-1.24 -1.896,-2.184 -0.448,-0.944 -0.672,-2.04 -0.672,-3.288 0,-1.248 0.224,-2.352 0.672,-3.312 0.464,-0.976 1.104,-1.728 1.92,-2.256 0.816,-0.544 1.744,-0.816 2.784,-0.816 0.88,0 1.664,0.192 2.352,0.576 0.688,0.368 1.216,0.888 1.584,1.56 V 17.88 Z m -6.072,9.96 c 0.992,0 1.76,-0.344 2.304,-1.032 0.544,-0.688 0.816,-1.656 0.816,-2.904 0,-1.28 -0.272,-2.264 -0.816,-2.952 -0.544,-0.688 -1.32,-1.032 -2.328,-1.032 -0.992,0 -1.768,0.36 -2.328,1.08 -0.544,0.704 -0.816,1.688 -0.816,2.952 0,1.248 0.272,2.208 0.816,2.88 0.56,0.672 1.344,1.008 2.352,1.008 z m 15.867,-10.248 c 0.464,0 0.864,0.064 1.2,0.192 l -0.024,2.736 c -0.512,-0.208 -1.04,-0.312 -1.584,-0.312 -1.024,0 -1.808,0.296 -2.352,0.888 -0.528,0.592 -0.792,1.376 -0.792,2.352 V 30 h -2.976 v -8.688 c 0,-1.28 -0.064,-2.424 -0.192,-3.432 h 2.808 l 0.24,2.136 c 0.304,-0.784 0.784,-1.384 1.44,-1.8 0.656,-0.416 1.4,-0.624 2.232,-0.624 z"
       inkscape:connector-curvature="0" />
    <path
       style="fill:#ffffff"
       id="circle4"
       d="M 20.5,0 A 20.5,20.5 0 0 0 0,20.5 20.5,20.5 0 0 0 20.5,41 20.5,20.5 0 0 0 41,20.5 20.5,20.5 0 0 0 20.5,0 Z m -7.1875,12.488281 h 15.46875 v 2.75586 H 22.724609 V 31 H 19.34375 V 15.244141 H 13.3125 Z"
       inkscape:connector-curvature="0" />
  </g>
</svg>
